<svg xmlns="http://www.w3.org/2000/svg" version="1.1" xmlns:xlink="http://www.w3.org/1999/xlink" xmlns:svgjs="http://svgjs.com/svgjs" width="1440" height="560" preserveAspectRatio="none" viewBox="0 0 1440 560">
    <g mask="url(&quot;#SvgjsMask1024&quot;)" fill="none">
        <rect width="1440" height="560" x="0" y="0" fill="rgba(24, 38, 53, 1)"></rect>
        <path d="M0,524.128C95.904,545.524,187.145,472.908,268.578,417.916C348.542,363.916,444.619,306.171,463.013,211.451C481.349,117.033,368.691,44.039,359.781,-51.729C350.076,-156.047,457.248,-261.855,410.268,-355.499C364.877,-445.975,242.645,-470.887,142.411,-485.008C49.985,-498.029,-44.189,-474.971,-126.591,-431.129C-199.607,-392.28,-237.32,-315.059,-292.614,-253.551C-349.18,-190.628,-426.536,-145.031,-455.314,-65.464C-487.223,22.76,-512.645,132.343,-460.361,210.24C-407.497,289.002,-279.595,259.669,-201.221,313.107C-119.257,368.992,-96.823,502.527,0,524.128" fill="#101923"></path>
        <path d="M1440 1156.315C1550.817 1157.6309999999999 1612.341 1025.608 1686.031 942.832 1742.16 879.7819999999999 1787.942 811.462 1817.4189999999999 732.362 1845.195 657.827 1846.06 580.356 1850.703 500.95 1856.555 400.874 1891.144 296.885 1848.1779999999999 206.312 1800.895 106.63799999999998 1716.768 5.538000000000011 1607.731-11.240999999999985 1498.385-28.067999999999984 1412.279 77.23500000000001 1311.917 123.78800000000001 1229.016 162.24200000000002 1133.952 174.22899999999998 1069.094 238.608 1001.597 305.60699999999997 967.0350000000001 396.38599999999997 944.269 488.725 919.579 588.866 881.985 701.87 932.741 791.657 983.3399999999999 881.1659999999999 1114.209 877.0160000000001 1197.696 937.033 1287.974 1001.932 1328.824 1154.995 1440 1156.315" fill="#203348"></path>
    </g>
    <defs>
        <mask id="SvgjsMask1024">
            <rect width="1440" height="560" fill="#ffffff"></rect>
        </mask>
    </defs>
</svg>