<svg xmlns="http://www.w3.org/2000/svg" version="1.1" xmlns:xlink="http://www.w3.org/1999/xlink" xmlns:svgjs="http://svgjs.com/svgjs" width="1440" height="560" preserveAspectRatio="none" viewBox="0 0 1440 560">
    <g mask="url(&quot;#SvgjsMask1024&quot;)" fill="none">
        <rect width="1440" height="560" x="0" y="0" fill="url(#SvgjsLinearGradient1025)"></rect>
        <path d="M753 144L752 563" stroke-width="10" stroke="url(#SvgjsLinearGradient1026)" stroke-linecap="round" class="Up"></path>
        <path d="M1146 528L1145 136" stroke-width="8" stroke="url(#SvgjsLinearGradient1026)" stroke-linecap="round" class="Up"></path>
        <path d="M1369 404L1368 638" stroke-width="10" stroke="url(#SvgjsLinearGradient1026)" stroke-linecap="round" class="Up"></path>
        <path d="M870 396L869 147" stroke-width="6" stroke="url(#SvgjsLinearGradient1027)" stroke-linecap="round" class="Down"></path>
        <path d="M523 472L522 126" stroke-width="6" stroke="url(#SvgjsLinearGradient1027)" stroke-linecap="round" class="Down"></path>
        <path d="M1021 251L1020 425" stroke-width="10" stroke="url(#SvgjsLinearGradient1026)" stroke-linecap="round" class="Up"></path>
        <path d="M321 298L320 -114" stroke-width="8" stroke="url(#SvgjsLinearGradient1027)" stroke-linecap="round" class="Down"></path>
        <path d="M572 161L571 305" stroke-width="8" stroke="url(#SvgjsLinearGradient1026)" stroke-linecap="round" class="Up"></path>
        <path d="M356 178L355 -13" stroke-width="6" stroke="url(#SvgjsLinearGradient1027)" stroke-linecap="round" class="Down"></path>
        <path d="M164 3L163 266" stroke-width="10" stroke="url(#SvgjsLinearGradient1027)" stroke-linecap="round" class="Down"></path>
        <path d="M536 322L535 589" stroke-width="8" stroke="url(#SvgjsLinearGradient1026)" stroke-linecap="round" class="Up"></path>
        <path d="M398 41L397 -376" stroke-width="6" stroke="url(#SvgjsLinearGradient1026)" stroke-linecap="round" class="Up"></path>
        <path d="M55 393L54 812" stroke-width="8" stroke="url(#SvgjsLinearGradient1027)" stroke-linecap="round" class="Down"></path>
        <path d="M431 553L430 133" stroke-width="8" stroke="url(#SvgjsLinearGradient1026)" stroke-linecap="round" class="Up"></path>
        <path d="M824 1L823 273" stroke-width="10" stroke="url(#SvgjsLinearGradient1027)" stroke-linecap="round" class="Down"></path>
        <path d="M945 487L944 713" stroke-width="8" stroke="url(#SvgjsLinearGradient1026)" stroke-linecap="round" class="Up"></path>
        <path d="M1433 13L1432 266" stroke-width="6" stroke="url(#SvgjsLinearGradient1026)" stroke-linecap="round" class="Up"></path>
        <path d="M731 111L730 297" stroke-width="8" stroke="url(#SvgjsLinearGradient1027)" stroke-linecap="round" class="Down"></path>
        <path d="M1197 313L1196 472" stroke-width="10" stroke="url(#SvgjsLinearGradient1026)" stroke-linecap="round" class="Up"></path>
        <path d="M1172 445L1171 30" stroke-width="6" stroke="url(#SvgjsLinearGradient1026)" stroke-linecap="round" class="Up"></path>
        <path d="M439 330L438 36" stroke-width="8" stroke="url(#SvgjsLinearGradient1027)" stroke-linecap="round" class="Down"></path>
        <path d="M74 164L73 324" stroke-width="6" stroke="url(#SvgjsLinearGradient1027)" stroke-linecap="round" class="Down"></path>
        <path d="M1174 375L1173 551" stroke-width="10" stroke="url(#SvgjsLinearGradient1026)" stroke-linecap="round" class="Up"></path>
        <path d="M252 331L251 -45" stroke-width="6" stroke="url(#SvgjsLinearGradient1027)" stroke-linecap="round" class="Down"></path>
        <path d="M1393 49L1392 405" stroke-width="10" stroke="url(#SvgjsLinearGradient1027)" stroke-linecap="round" class="Down"></path>
        <path d="M1265 335L1264 683" stroke-width="10" stroke="url(#SvgjsLinearGradient1026)" stroke-linecap="round" class="Up"></path>
        <path d="M589 151L588 455" stroke-width="10" stroke="url(#SvgjsLinearGradient1027)" stroke-linecap="round" class="Down"></path>
        <path d="M964 449L963 40" stroke-width="6" stroke="url(#SvgjsLinearGradient1026)" stroke-linecap="round" class="Up"></path>
        <path d="M1406 386L1405 201" stroke-width="6" stroke="url(#SvgjsLinearGradient1026)" stroke-linecap="round" class="Up"></path>
        <path d="M1403 558L1402 383" stroke-width="6" stroke="url(#SvgjsLinearGradient1027)" stroke-linecap="round" class="Down"></path>
        <path d="M621 9L620 293" stroke-width="6" stroke="url(#SvgjsLinearGradient1027)" stroke-linecap="round" class="Down"></path>
        <path d="M726 461L725 195" stroke-width="10" stroke="url(#SvgjsLinearGradient1027)" stroke-linecap="round" class="Down"></path>
        <path d="M1202 231L1201 -19" stroke-width="10" stroke="url(#SvgjsLinearGradient1026)" stroke-linecap="round" class="Up"></path>
        <path d="M730 357L729 620" stroke-width="10" stroke="url(#SvgjsLinearGradient1027)" stroke-linecap="round" class="Down"></path>
        <path d="M263 327L262 -32" stroke-width="6" stroke="url(#SvgjsLinearGradient1026)" stroke-linecap="round" class="Up"></path>
        <path d="M1015 128L1014 -56" stroke-width="6" stroke="url(#SvgjsLinearGradient1027)" stroke-linecap="round" class="Down"></path>
    </g>
    <defs>
        <mask id="SvgjsMask1024">
            <rect width="1440" height="560" fill="#ffffff"></rect>
        </mask>
        <linearGradient x1="15.28%" y1="139.29%" x2="84.72%" y2="-39.29%" gradientUnits="userSpaceOnUse" id="SvgjsLinearGradient1025">
            <stop stop-color="#0e2a47" offset="0"></stop>
            <stop stop-color="rgba(0, 0, 0, 1)" offset="1"></stop>
        </linearGradient>
        <linearGradient x1="0%" y1="100%" x2="0%" y2="0%" id="SvgjsLinearGradient1026">
            <stop stop-color="rgba(2, 2, 12, 0)" offset="0"></stop>
            <stop stop-color="rgba(2, 2, 12, 1)" offset="1"></stop>
        </linearGradient>
        <linearGradient x1="0%" y1="0%" x2="0%" y2="100%" id="SvgjsLinearGradient1027">
            <stop stop-color="rgba(2, 2, 12, 0)" offset="0"></stop>
            <stop stop-color="rgba(2, 2, 12, 1)" offset="1"></stop>
        </linearGradient>
    </defs>
</svg>