<svg xmlns="http://www.w3.org/2000/svg" version="1.1" xmlns:xlink="http://www.w3.org/1999/xlink" xmlns:svgjs="http://svgjs.com/svgjs" width="1440" height="560" preserveAspectRatio="none" viewBox="0 0 1440 560"><g mask="url(&quot;#SvgjsMask1134&quot;)" fill="none"><rect width="1440" height="560" x="0" y="0" fill="#0e2a47"></rect><path d="M0,451.702C97.179,455.734,199.007,488.613,285.795,444.706C375.208,399.471,424.6,304.006,469.253,214.301C515.16,122.077,575.143,20.345,546.256,-78.54C517.598,-176.642,395.575,-207.739,324.507,-281.187C258.734,-349.163,235.194,-465.303,144.867,-493.373C54.528,-521.447,-30.022,-435.319,-123.438,-420.393C-236.174,-402.38,-378.414,-478.693,-458.184,-397.019C-536.595,-316.736,-473.081,-179.445,-468.271,-67.327C-464.373,23.532,-466.707,113.261,-432.672,197.595C-397.493,284.764,-352.004,374.002,-270.949,421.605C-190.972,468.575,-92.67,447.857,0,451.702" fill="#091c30"></path><path d="M1440 878.998C1499.223 866.554 1551.01 840.912 1608.617 822.374 1690.43 796.046 1808.774 822.673 1849.766 747.134 1889.769 673.417 1797.963 592.792 1777.315 511.501 1759.505 441.384 1780.489 360.473 1736.8890000000001 302.744 1692.532 244.01299999999998 1617.451 214.50599999999997 1544.682 203.48399999999998 1476.864 193.212 1410.351 217.10399999999998 1347.128 243.707 1289.5720000000001 267.926 1248.094 313.39599999999996 1197.267 349.671 1127.895 399.182 1005.293 411.397 993.8340000000001 495.851 982.3389999999999 580.567 1109.5729999999999 617.179 1150.809 692.069 1187.376 758.48 1155.064 863.142 1218.734 904.297 1282.369 945.429 1365.848 894.579 1440 878.998" fill="#13385e"></path></g><defs><mask id="SvgjsMask1134"><rect width="1440" height="560" fill="#ffffff"></rect></mask></defs></svg>