<svg xmlns="http://www.w3.org/2000/svg" viewBox="0 0 1440 320"><path fill="#1b264f" fill-opacity="0.78" d="M0,288L0,160L51.4,160L51.4,288L102.9,288L102.9,192L154.3,192L154.3,320L205.7,320L205.7,192L257.1,192L257.1,224L308.6,224L308.6,64L360,64L360,32L411.4,32L411.4,128L462.9,128L462.9,256L514.3,256L514.3,192L565.7,192L565.7,128L617.1,128L617.1,64L668.6,64L668.6,224L720,224L720,224L771.4,224L771.4,96L822.9,96L822.9,64L874.3,64L874.3,192L925.7,192L925.7,0L977.1,0L977.1,288L1028.6,288L1028.6,0L1080,0L1080,288L1131.4,288L1131.4,160L1182.9,160L1182.9,128L1234.3,128L1234.3,32L1285.7,32L1285.7,128L1337.1,128L1337.1,0L1388.6,0L1388.6,0L1440,0L1440,320L1388.6,320L1388.6,320L1337.1,320L1337.1,320L1285.7,320L1285.7,320L1234.3,320L1234.3,320L1182.9,320L1182.9,320L1131.4,320L1131.4,320L1080,320L1080,320L1028.6,320L1028.6,320L977.1,320L977.1,320L925.7,320L925.7,320L874.3,320L874.3,320L822.9,320L822.9,320L771.4,320L771.4,320L720,320L720,320L668.6,320L668.6,320L617.1,320L617.1,320L565.7,320L565.7,320L514.3,320L514.3,320L462.9,320L462.9,320L411.4,320L411.4,320L360,320L360,320L308.6,320L308.6,320L257.1,320L257.1,320L205.7,320L205.7,320L154.3,320L154.3,320L102.9,320L102.9,320L51.4,320L51.4,320L0,320L0,320Z"></path></svg>